<svg width="180" height="180" fill="none" xmlns="http://www.w3.org/2000/svg"><g clip-path="url(#clip0)" fill="#054742"><path d="M161.043 18.737c-24.972-24.983-65.473-24.983-90.455 0-3.609 3.619-11.128 12.07-13.694 16.23 24.651-15.198 57.363-12.18 78.726 9.193 21.283 21.283 24.371 53.794 9.383 78.405l.983-.983c4.28-2.596 11.348-8.681 15.047-12.38 24.992-24.992 24.992-65.493.01-90.465z"/><path d="M52.613 127.166C27.48 102.034 12.092 55.809 40.453 6.947L27.19 20.2c-36.551 36.55-36.551 95.828 0 132.379 36.56 36.561 95.828 36.561 132.379 0l13.253-13.253c-46.526 27.058-92.841 15.218-120.21-12.16z"/></g><defs><clipPath id="clip0"><path fill="#fff" d="M0 0h180v180H0z"/></clipPath></defs></svg>
